
        <svg xmlns="http://www.w3.org/2000/svg" xmlns:xlink="http://www.w3.org/1999/xlink" version="1.1" width="3162.1621621621625" height="1717.2766262631476" viewBox="0 0 3162.1621621621625 1717.2766262631476">
			
			<g transform="scale(8.108108108108109) translate(10, 10)">
				<defs id="SvgjsDefs8433"><linearGradient id="SvgjsLinearGradient8438"><stop id="SvgjsStop8439" stop-color="#ef4136" offset="0"/><stop id="SvgjsStop8440" stop-color="#fbb040" offset="1"/></linearGradient><linearGradient id="SvgjsLinearGradient8441"><stop id="SvgjsStop8442" stop-color="#ef4136" offset="0"/><stop id="SvgjsStop8443" stop-color="#fbb040" offset="1"/></linearGradient></defs><g id="SvgjsG8434" featureKey="5TMTKC-0" transform="matrix(2.256455898284912,0,0,2.256455898284912,-51.54032146303296,-5.640170527075079)" fill="#fff"><path xmlns="http://www.w3.org/2000/svg" d="M65.532,53.661c2.473-2.341,2.081-5.645-0.869-7.341L59.1,43.118c-2.95-1.697-4.723-5.797-3.941-9.109l6.699-28.398  c0.781-3.312-0.602-4.108-3.073-1.767L24.467,36.339c-2.472,2.341-2.08,5.644,0.87,7.342l5.562,3.2  c2.949,1.698,4.724,5.798,3.943,9.109l-6.701,28.398c-0.78,3.312,0.602,4.107,3.074,1.767L65.532,53.661z"/></g><g id="SvgjsG8435" featureKey="7UBp9i-0" transform="matrix(3.9542787075042725,0,0,3.9542787075042725,117.33549865779223,48.32190299660179)" fill="#fff"><path d="M5.458984 16.894531 l-0.009766 -0.019531 c0.869141 0 1.591797 -0.722656 1.591797 -1.591797 c0 -0.673828 -0.263672 -1.103516 -0.800781 -1.298828 c-1.132812 -0.419922 -0.859375 -0.322266 -1.962891 -0.703125 c-1.162109 -0.400391 -2.236328 -1.191406 -2.958984 -2.177734 c-0.429687 -0.585937 -0.644531 -1.308594 -0.644531 -2.177734 c0 -1.308594 0.46875 -2.431641 1.40625 -3.369141 s2.060547 -1.40625 3.378906 -1.40625 c1.308594 0 2.431641 0.46875 3.369141 1.40625 s1.40625 2.060547 1.40625 3.369141 l-3.173828 0 c0 -0.859375 -0.722656 -1.582031 -1.582031 -1.582031 c-0.869141 0 -1.591797 0.722656 -1.591797 1.591797 c0 0.566406 0.224609 0.996094 0.683594 1.289063 c0.9375 0.605469 0.830078 0.488281 1.953125 0.820313 c1.210938 0.351563 2.304688 1.103516 3.056641 2.070313 c0.439453 0.566406 0.664063 1.298828 0.664063 2.1875 c0 1.318359 -0.46875 2.441406 -1.40625 3.378906 s-2.060547 1.40625 -3.369141 1.40625 c-1.318359 0 -2.441406 -0.46875 -3.378906 -1.40625 s-1.40625 -2.060547 -1.40625 -3.378906 l3.183594 0 c0 0.878906 0.712891 1.591797 1.591797 1.591797 z M11.689453 20 l0 -15.742187 l3.154297 0 l0 15.742188 l-3.154297 0 z M23.964844 4.179688 l0.009766 0.029297 c1.09375 0 2.119141 0.205078 3.085938 0.625 s1.816406 0.986328 2.548828 1.699219 l-2.246094 2.246094 c-0.947266 -0.9375 -2.070312 -1.40625 -3.369141 -1.40625 c-1.318359 0 -2.441406 0.46875 -3.369141 1.40625 s-1.396484 2.060547 -1.396484 3.369141 c0 1.318359 0.46875 2.441406 1.396484 3.369141 s2.050781 1.396484 3.369141 1.396484 c1.035156 0 1.962891 -0.292969 2.773438 -0.888672 s1.386719 -1.357422 1.71875 -2.285156 l-4.501953 0 l0 -3.173828 l4.501953 0 l1.845703 0 l1.445313 0 c0.107422 0.498047 0.15625 1.025391 0.15625 1.582031 c0 2.1875 -0.78125 4.0625 -2.34375 5.615234 s-3.4375 2.333984 -5.625 2.333984 s-4.0625 -0.78125 -5.615234 -2.333984 s-2.333984 -3.427734 -2.333984 -5.615234 s0.78125 -4.0625 2.333984 -5.625 s3.427734 -2.34375 5.615234 -2.34375 z M33.085938 3.964844 l7.675781 10.527344 l7.675781 -10.527344 l0 16.035156 l-3.154297 0 l0 -6.494141 l-4.521484 6.240234 l-4.521484 -6.240234 l0 6.494141 l-3.154297 0 l0 -16.035156 z M55.351563 14.794922 l2.783203 0 l-1.386719 -3.271484 z M54.0625 17.578125 l-0.039062 0.117188 l-1.025391 2.265625 l-0.546875 0 l-0.126953 0 l-2.050781 0 l-0.673828 0 l7.138672 -15.996094 l7.158203 15.996094 l-0.673828 0 l-2.050781 0 l-0.136719 0 l-0.546875 0 l-1.015625 -2.275391 l-0.048828 -0.107422 l-5.361328 0 z"/></g>
			</g>
		</svg>
	